HIERARCHY
ROOT Hips
{
	OFFSET 0.000000 71.427986 0.000000
	CHANNELS 6 Xposition Yposition Zposition Xrotation Yrotation Zrotation
	JOINT Pelvis
	{
		OFFSET 0.000000 0.000000 0.000000
		CHANNELS 3 Xrotation Yrotation Zrotation
		JOINT LeftUpLeg
		{
			OFFSET 6.797100 -2.508499 -1.318700
			CHANNELS 3 Xrotation Yrotation Zrotation
			JOINT LeftLeg
			{
				OFFSET 0.069008 -29.241863 0.690200
				CHANNELS 3 Xrotation Yrotation Zrotation
				JOINT LeftFoot
				{
					OFFSET -0.069008 -29.568123 -0.266800
					CHANNELS 3 Xrotation Yrotation Zrotation
					JOINT LeftToeBase
					{
						OFFSET 3.145500 -8.631000 16.059900
						CHANNELS 3 Xrotation Yrotation Zrotation
						End Site
						{
							OFFSET 0.000000 18.501587 0.000000
						}
					}
				}
			}
			JOINT Left_ShortSleeve
			{
				OFFSET 0.265923 -10.480953 1.153800
				CHANNELS 3 Xrotation Yrotation Zrotation
				End Site
				{
					OFFSET 1.725763 19.823879 0.000000
				}
			}
		}
		JOINT RightUpLeg
		{
			OFFSET -6.797100 -2.508499 -1.318700
			CHANNELS 3 Xrotation Yrotation Zrotation
			JOINT RightLeg
			{
				OFFSET -0.082453 -29.241932 0.688000
				CHANNELS 3 Xrotation Yrotation Zrotation
				JOINT RightFoot
				{
					OFFSET 0.082453 -29.568058 -0.264600
					CHANNELS 3 Xrotation Yrotation Zrotation
					JOINT RightToeBase
					{
						OFFSET -3.115300 -8.682800 16.113400
						CHANNELS 3 Xrotation Yrotation Zrotation
						End Site
						{
							OFFSET 0.000000 18.567114 0.000000
						}
					}
				}
			}
			JOINT Right_ShortSleeve
			{
				OFFSET -0.265923 -10.480953 1.153800
				CHANNELS 3 Xrotation Yrotation Zrotation
				End Site
				{
					OFFSET -1.725766 19.823910 0.000000
				}
			}
		}
	}
	JOINT Spine
	{
		OFFSET 0.000000 13.368103 0.470500
		CHANNELS 3 Xrotation Yrotation Zrotation
		JOINT Spine1
		{
			OFFSET 0.147000 13.837402 0.538800
			CHANNELS 3 Xrotation Yrotation Zrotation
			JOINT Spine2
			{
				OFFSET 0.168000 16.242897 -1.435500
				CHANNELS 3 Xrotation Yrotation Zrotation
				JOINT Neck
				{
					OFFSET 0.217200 18.631500 -1.679100
					CHANNELS 3 Xrotation Yrotation Zrotation
					JOINT Head
					{
						OFFSET 0.000000 6.599396 1.385900
						CHANNELS 3 Xrotation Yrotation Zrotation
						JOINT Hat
						{
							OFFSET -0.532200 27.220596 -10.096100
							CHANNELS 3 Xrotation Yrotation Zrotation
							End Site
							{
								OFFSET 0.000000 22.029861 0.000000
							}
						}
						JOINT HairD
						{
							OFFSET -10.777400 17.437393 -1.325900
							CHANNELS 3 Xrotation Yrotation Zrotation
							JOINT HairD1
							{
								OFFSET -3.290299 -11.051193 1.062200
								CHANNELS 3 Xrotation Yrotation Zrotation
								End Site
								{
									OFFSET 0.000000 11.579437 0.000000
								}
							}
						}
						JOINT HairB
						{
							OFFSET -10.777400 17.437393 1.467900
							CHANNELS 3 Xrotation Yrotation Zrotation
							JOINT HairB1
							{
								OFFSET -1.561200 -12.956299 3.590200
								CHANNELS 3 Xrotation Yrotation Zrotation
								End Site
								{
									OFFSET 0.000000 13.534866 0.000000
								}
							}
						}
						JOINT HairA
						{
							OFFSET 9.713100 17.437393 1.467900
							CHANNELS 3 Xrotation Yrotation Zrotation
							JOINT HairA1
							{
								OFFSET 1.561200 -12.956299 3.590200
								CHANNELS 3 Xrotation Yrotation Zrotation
								End Site
								{
									OFFSET 0.000000 13.534866 0.000000
								}
							}
						}
						JOINT HairC
						{
							OFFSET 9.713100 17.437393 -1.325900
							CHANNELS 3 Xrotation Yrotation Zrotation
							JOINT HairC1
							{
								OFFSET 3.290300 -11.051193 1.062200
								CHANNELS 3 Xrotation Yrotation Zrotation
								End Site
								{
									OFFSET 0.000000 11.579437 0.000000
								}
							}
						}
					}
				}
				JOINT LeftShoulder
				{
					OFFSET 5.101800 15.108002 -2.763700
					CHANNELS 3 Xrotation Yrotation Zrotation
					JOINT LeftArm
					{
						OFFSET 9.825497 2.506317 -1.597400
						CHANNELS 3 Xrotation Yrotation Zrotation
						JOINT LeftForeArm
						{
							OFFSET 21.966244 0.000000 0.000000
							CHANNELS 3 Xrotation Yrotation Zrotation
							JOINT LeftHand
							{
								OFFSET 33.879036 0.000000 0.000000
								CHANNELS 3 Xrotation Yrotation Zrotation
								JOINT LeftHandThumb1
								{
									OFFSET 6.715286 -2.359680 3.363841
									CHANNELS 3 Xrotation Yrotation Zrotation
									JOINT LeftHandThumb2
									{
										OFFSET 2.507072 -1.447464 1.447461
										CHANNELS 3 Xrotation Yrotation Zrotation
										JOINT LeftHandThumb3
										{
											OFFSET 2.898338 -1.673355 1.673357
											CHANNELS 3 Xrotation Yrotation Zrotation
											End Site
											{
												OFFSET -0.295959 3.727692 -0.131651
											}
										}
									}
								}
								JOINT LeftHandIndex1
								{
									OFFSET 14.190811 -0.254547 3.840278
									CHANNELS 3 Xrotation Yrotation Zrotation
									JOINT LeftHandIndex2
									{
										OFFSET 3.551727 0.000000 -0.000000
										CHANNELS 3 Xrotation Yrotation Zrotation
										JOINT LeftHandIndex3
										{
											OFFSET 2.894196 0.000000 0.000000
											CHANNELS 3 Xrotation Yrotation Zrotation
											End Site
											{
												OFFSET -1.000603 2.690872 0.366626
											}
										}
									}
								}
								JOINT LeftHandMiddle1
								{
									OFFSET 13.776489 0.000000 0.000000
									CHANNELS 3 Xrotation Yrotation Zrotation
									JOINT LeftHandMiddle2
									{
										OFFSET 3.438232 0.000000 0.000000
										CHANNELS 3 Xrotation Yrotation Zrotation
										JOINT LeftHandMiddle3
										{
											OFFSET 3.691551 0.000000 0.000000
											CHANNELS 3 Xrotation Yrotation Zrotation
											End Site
											{
												OFFSET -1.082298 3.499527 0.457670
											}
										}
									}
								}
								JOINT LeftHandRing1
								{
									OFFSET 13.966164 -0.268127 -3.067488
									CHANNELS 3 Xrotation Yrotation Zrotation
									JOINT LeftHandRing2
									{
										OFFSET 3.162567 0.000000 0.000000
										CHANNELS 3 Xrotation Yrotation Zrotation
										JOINT LeftHandRing3
										{
											OFFSET 3.324348 0.000000 0.000000
											CHANNELS 3 Xrotation Yrotation Zrotation
											End Site
											{
												OFFSET -0.861900 3.184998 0.405154
											}
										}
									}
								}
								JOINT LeftHandPinky1
								{
									OFFSET 13.131393 -0.168503 -5.746925
									CHANNELS 3 Xrotation Yrotation Zrotation
									JOINT LeftHandPinky2
									{
										OFFSET 2.849182 0.000000 0.000000
										CHANNELS 3 Xrotation Yrotation Zrotation
										JOINT LeftHandPinky3
										{
											OFFSET 2.805038 0.000000 0.000000
											CHANNELS 3 Xrotation Yrotation Zrotation
											End Site
											{
												OFFSET -0.882500 2.642609 0.325652
											}
										}
									}
								}
							}
							JOINT Left_Sleeve
							{
								OFFSET 6.592125 -0.646545 0.805568
								CHANNELS 3 Xrotation Yrotation Zrotation
								End Site
								{
									OFFSET -0.000179 20.275787 -0.000000
								}
							}
						}
					}
				}
				JOINT RightShoulder
				{
					OFFSET -5.731700 15.108002 -2.763700
					CHANNELS 3 Xrotation Yrotation Zrotation
					JOINT RightArm
					{
						OFFSET -9.825497 2.506317 -1.597400
						CHANNELS 3 Xrotation Yrotation Zrotation
						JOINT RightForeArm
						{
							OFFSET -21.966242 0.000000 0.000000
							CHANNELS 3 Xrotation Yrotation Zrotation
							JOINT RightHand
							{
								OFFSET -33.879032 0.000000 0.000000
								CHANNELS 3 Xrotation Yrotation Zrotation
								JOINT RightHandThumb1
								{
									OFFSET -6.715286 -2.359680 3.363841
									CHANNELS 3 Xrotation Yrotation Zrotation
									JOINT RightHandThumb2
									{
										OFFSET -2.507072 -1.447464 1.447461
										CHANNELS 3 Xrotation Yrotation Zrotation
										JOINT RightHandThumb3
										{
											OFFSET -2.898338 -1.673355 1.673357
											CHANNELS 3 Xrotation Yrotation Zrotation
											End Site
											{
												OFFSET 0.295959 3.727692 -0.131651
											}
										}
									}
								}
								JOINT RightHandIndex1
								{
									OFFSET -14.190811 -0.254547 3.840278
									CHANNELS 3 Xrotation Yrotation Zrotation
									JOINT RightHandIndex2
									{
										OFFSET -3.551727 0.000000 -0.000000
										CHANNELS 3 Xrotation Yrotation Zrotation
										JOINT RightHandIndex3
										{
											OFFSET -2.894196 0.000000 0.000000
											CHANNELS 3 Xrotation Yrotation Zrotation
											End Site
											{
												OFFSET 1.000603 2.690872 0.366626
											}
										}
									}
								}
								JOINT RightHandMiddle1
								{
									OFFSET -13.776489 0.000000 0.000000
									CHANNELS 3 Xrotation Yrotation Zrotation
									JOINT RightHandMiddle2
									{
										OFFSET -3.438232 0.000000 0.000000
										CHANNELS 3 Xrotation Yrotation Zrotation
										JOINT RightHandMiddle3
										{
											OFFSET -3.691551 0.000000 0.000000
											CHANNELS 3 Xrotation Yrotation Zrotation
											End Site
											{
												OFFSET 1.082298 3.499527 0.457670
											}
										}
									}
								}
								JOINT RightHandRing1
								{
									OFFSET -13.966164 -0.268127 -3.067488
									CHANNELS 3 Xrotation Yrotation Zrotation
									JOINT RightHandRing2
									{
										OFFSET -3.162567 0.000000 0.000000
										CHANNELS 3 Xrotation Yrotation Zrotation
										JOINT RightHandRing3
										{
											OFFSET -3.324348 0.000000 0.000000
											CHANNELS 3 Xrotation Yrotation Zrotation
											End Site
											{
												OFFSET 0.861900 3.184998 0.405154
											}
										}
									}
								}
								JOINT RightHandPinky1
								{
									OFFSET -13.131393 -0.168503 -5.746925
									CHANNELS 3 Xrotation Yrotation Zrotation
									JOINT RightHandPinky2
									{
										OFFSET -2.849182 0.000000 0.000000
										CHANNELS 3 Xrotation Yrotation Zrotation
										JOINT RightHandPinky3
										{
											OFFSET -2.805038 0.000000 0.000000
											CHANNELS 3 Xrotation Yrotation Zrotation
											End Site
											{
												OFFSET 0.882500 2.642609 0.325652
											}
										}
									}
								}
							}
							JOINT Right_Sleeve
							{
								OFFSET -6.592125 -0.646545 0.805568
								CHANNELS 3 Xrotation Yrotation Zrotation
								End Site
								{
									OFFSET 0.000179 20.275787 -0.000000
								}
							}
						}
					}
				}
				JOINT Bind_Right_JacketString
				{
					OFFSET -3.534800 11.969597 7.200700
					CHANNELS 3 Xrotation Yrotation Zrotation
					JOINT Bind_Right_JacketString1
					{
						OFFSET -0.319900 -6.102600 2.794100
						CHANNELS 3 Xrotation Yrotation Zrotation
						End Site
						{
							OFFSET 0.000000 6.719452 0.000000
						}
					}
				}
				JOINT Bind_Left_JacketString
				{
					OFFSET 2.904800 11.969597 7.200700
					CHANNELS 3 Xrotation Yrotation Zrotation
					JOINT Bind_Left_JacketString1
					{
						OFFSET 0.364800 -5.904503 3.186800
						CHANNELS 3 Xrotation Yrotation Zrotation
						End Site
						{
							OFFSET 0.000000 6.719513 0.000000
						}
					}
				}
				JOINT HairE
				{
					OFFSET 5.915200 17.612701 -11.592200
					CHANNELS 3 Xrotation Yrotation Zrotation
					JOINT HairE1
					{
						OFFSET 0.289200 -7.171898 -1.284500
						CHANNELS 3 Xrotation Yrotation Zrotation
						End Site
						{
							OFFSET 0.000000 7.291756 0.000000
						}
					}
				}
				JOINT HairF
				{
					OFFSET -0.864800 17.612701 -11.592200
					CHANNELS 3 Xrotation Yrotation Zrotation
					JOINT HairF1
					{
						OFFSET 0.000000 -14.087097 -2.127501
						CHANNELS 3 Xrotation Yrotation Zrotation
						End Site
						{
							OFFSET 0.000000 14.246841 0.000000
						}
					}
				}
				JOINT HairG
				{
					OFFSET -8.087700 17.612701 -11.592200
					CHANNELS 3 Xrotation Yrotation Zrotation
					JOINT HairG1
					{
						OFFSET -0.293600 -6.081398 -0.910100
						CHANNELS 3 Xrotation Yrotation Zrotation
						End Site
						{
							OFFSET 0.000000 6.156120 0.000000
						}
					}
				}
			}
		}
	}
	JOINT Pouch
	{
		OFFSET 0.000000 4.394501 10.847300
		CHANNELS 3 Xrotation Yrotation Zrotation
		End Site
		{
			OFFSET 0.000000 21.880577 0.000000
		}
	}
	JOINT Bag
	{
		OFFSET -13.229000 4.813004 -0.593300
		CHANNELS 3 Xrotation Yrotation Zrotation
		End Site
		{
			OFFSET 0.000000 21.880577 0.000000
		}
	}
	JOINT OccupyGuyFacialAnim_Joint
	{
		OFFSET 1.000000 -70.206398 -1.655000
		CHANNELS 3 Xrotation Yrotation Zrotation
		End Site
		{
			OFFSET 0.000000 21.880577 0.000000
		}
	}
}
MOTION
Frames: 4
Frame Time: 0.033333
-0.033163 62.889328 1.176742 6.084843 -12.495712 -0.339897 -0.000000 -0.000000 -0.000000 -63.080069 3.758973 6.364222 73.953778 9.393195 -1.982033 7.635827 2.603512 6.016030 0.000001 -0.000000 -0.000000 0.000000 0.000000 0.000001 -44.143461 -2.624894 -14.196375 38.528687 -9.149009 -2.273454 3.602183 -5.214465 13.227814 0.000000 0.000000 0.000000 -0.000000 -0.000000 -0.000002 11.991394 7.890519 3.710870 8.765892 4.496978 0.946662 8.857995 4.304217 0.917054 2.302953 12.134353 -3.928428 7.652476 37.579148 -26.389276 -0.000000 0.000001 0.000000 -0.000000 0.000001 0.000000 -0.000000 0.000001 -0.000001 -0.000000 0.000001 -0.000000 -0.000001 0.000000 -0.000001 -0.000000 0.000001 -0.000000 -0.000001 0.000000 -0.000001 -0.000000 0.000001 0.000000 -0.000000 0.000001 0.000000 0.634756 -6.785932 -8.091489 2.859673 -19.791984 -33.646895 0.001261 -88.852401 0.001076 -35.261538 -15.703436 6.320053 -5.099619 1.647764 -0.787492 8.048645 28.278458 2.646540 -0.000001 0.000001 -0.000001 2.790189 2.991249 -56.628272 5.230772 5.818166 -83.904168 -0.000000 0.000003 -0.000001 3.571297 7.711336 -66.317811 5.230786 5.818202 -83.904161 0.000001 0.000001 -0.000001 6.260702 8.411431 -77.629622 5.233801 5.818532 -83.933859 0.000000 0.000001 0.000001 4.023340 13.032255 -89.947717 5.230813 5.818215 -83.904175 -0.000001 0.000000 0.000001 0.000004 0.000001 0.000002 2.118506 19.523770 -1.020161 4.524801 -6.088609 52.115955 0.000025 69.763354 -0.000014 27.650388 -5.608690 -11.685906 -8.937303 6.839958 2.945991 7.956579 -28.087654 -3.121886 -0.000001 0.000001 0.000003 17.052582 9.786421 -10.493670 0.426031 -1.947691 24.674120 0.000001 0.000001 0.000002 -0.107165 -1.138277 6.382160 0.427570 -1.951064 24.719518 0.000002 -0.000001 -0.000001 0.576028 -5.136373 12.653696 1.287515 -3.216616 43.620952 -0.000000 -0.000001 -0.000002 -8.177633 -19.397162 29.821958 1.603310 -3.517798 48.993306 0.000001 -0.000001 0.000000 0.000000 0.000001 0.000001 0.000001 0.000001 0.000001 0.000001 0.000000 0.000000 0.000001 0.000001 0.000001 0.000001 0.000001 0.000001 0.000001 0.000001 0.000001 0.000001 0.000000 0.000000 0.000001 0.000001 0.000001 0.000001 0.000001 0.000001 0.000001 0.000001 0.000001 0.000001 0.000000 0.000000 -0.000000 -0.000000 -0.000000 -0.000000 -0.000000 -0.000000 -0.000000 -0.000000 -0.000000 
1.366871 65.388268 -3.810712 6.430782 -10.277056 -1.097326 -0.000000 -0.000001 0.000000 -55.369034 2.977389 6.961642 71.027376 6.410372 -1.999357 7.204830 0.279459 -0.634611 -0.000000 -0.000000 0.000000 -0.000001 -0.000000 0.000001 -38.930893 -3.088456 -12.881674 22.100173 -5.135701 -1.956638 9.114050 -12.685736 15.545053 0.000001 -0.000002 -0.000001 0.000000 -0.000000 -0.000002 10.099185 8.080548 3.938660 8.379504 4.938362 0.870975 8.539870 4.821260 1.159566 1.183073 12.465111 -5.090580 7.227324 37.253163 -28.165617 -0.000000 0.000001 0.000000 -0.000000 0.000001 0.000000 -0.000000 0.000001 0.000001 -0.000000 0.000001 0.000001 -0.000000 -0.000001 0.000001 -0.000000 0.000001 0.000001 -0.000000 -0.000001 0.000001 -0.000000 0.000001 0.000000 -0.000000 0.000001 0.000000 0.262209 -6.054701 -10.849222 2.415866 -16.855283 -29.956294 0.000006 -78.551397 0.000001 -34.414601 -12.567963 4.281757 -7.420977 1.203603 -1.628488 8.131972 28.926988 2.690208 -0.000003 0.000003 -0.000003 2.143860 2.300371 -53.501333 4.983241 5.786541 -81.455859 0.000001 0.000005 -0.000003 3.227481 7.549042 -63.358228 5.056540 5.797044 -82.182264 -0.000001 0.000001 -0.000001 6.239306 8.476945 -75.357969 5.086896 5.801128 -82.482573 -0.000002 0.000001 0.000000 4.362287 13.387583 -88.075235 5.104304 5.803380 -82.654913 0.000001 0.000002 0.000003 0.000000 0.000001 -0.000002 1.859410 19.679273 1.219498 5.201236 -7.998378 50.961339 0.000083 74.654015 -0.000103 26.929681 -7.015063 -14.230964 -8.906955 6.364688 4.048720 7.956580 -28.087654 -3.121888 -0.000001 0.000002 -0.000001 15.538404 11.462544 -1.400617 0.664256 -2.398980 30.949643 -0.000000 -0.000001 0.000005 -0.330483 -1.101750 12.666917 0.594702 -2.279103 29.245583 0.000001 -0.000001 -0.000003 0.673621 -5.016089 17.009183 1.420477 -3.350357 45.941925 -0.000004 -0.000002 -0.000001 -7.422096 -19.170338 32.391452 1.730159 -3.623980 51.029897 -0.000001 -0.000004 -0.000002 0.000001 0.000000 -0.000001 -0.000002 0.000001 0.000000 -0.000000 0.000000 0.000001 -0.000002 0.000001 -0.000000 -0.000002 0.000001 -0.000000 -0.000002 0.000001 0.000000 -0.000000 0.000000 0.000001 -0.000002 0.000001 -0.000000 -0.000002 0.000001 -0.000000 -0.000002 0.000001 0.000000 -0.000000 0.000000 0.000001 -0.000000 -0.000001 0.000000 -0.000000 -0.000001 0.000000 -0.000000 -0.000001 0.000000 
2.762661 67.241714 -9.032593 6.800389 -8.105132 -1.773764 -0.000000 0.000001 -0.000000 -46.244113 2.699358 6.287637 66.950696 2.935505 -2.073903 -0.630428 0.457385 -0.227231 -0.000001 0.000000 -0.000000 -0.000001 -0.000000 -0.000000 -43.271509 -1.501945 -13.242393 23.909675 -3.473591 -1.930991 11.827946 -16.513548 20.717864 0.000001 0.000000 0.000000 0.000001 -0.000001 -0.000000 7.915301 8.497161 4.118983 7.993085 5.280639 0.828274 8.198410 5.220889 1.316162 0.930663 12.728404 -5.972496 7.199965 36.765597 -29.526822 -0.000001 0.000001 0.000000 -0.000001 0.000001 0.000000 -0.000001 0.000001 0.000001 -0.000001 0.000001 0.000000 -0.000003 0.000001 -0.000000 -0.000001 0.000001 0.000000 -0.000003 0.000001 -0.000000 -0.000001 0.000001 0.000000 -0.000001 0.000001 0.000000 0.151773 -4.345341 -14.088217 1.782965 -11.279936 -28.135305 0.000016 -67.856242 0.000026 -31.707657 -7.314966 -1.293701 -13.360019 0.214613 -4.115702 8.345853 30.592926 2.798713 -0.000000 -0.000000 0.000003 0.801863 0.288252 -45.504148 4.332142 5.651106 -74.928903 -0.000001 -0.000001 -0.000000 2.367581 7.015902 -55.478553 4.583340 5.712539 -77.465724 0.000000 0.000001 -0.000001 6.142218 8.687423 -69.206742 4.682757 5.733652 -78.462481 -0.000001 0.000000 -0.000001 5.161015 14.500420 -82.916598 4.752539 5.747379 -79.160192 -0.000002 -0.000005 0.000004 0.000000 -0.000001 -0.000002 1.661635 19.885090 3.230600 5.759545 -10.157336 50.107224 0.000118 79.348801 -0.000098 25.149713 -9.574946 -19.786674 -8.783967 5.190675 6.657971 7.956580 -28.087657 -3.121887 0.000002 -0.000001 -0.000003 10.005877 13.225241 20.994217 1.435793 -3.365102 46.203375 -0.000001 -0.000000 -0.000003 -1.112400 -1.298718 28.366066 1.131677 -3.044970 40.768112 0.000001 0.000001 -0.000001 0.716601 -4.698512 28.065679 1.787278 -3.669377 51.928214 0.000002 -0.000003 -0.000001 -5.621044 -18.331215 38.962930 2.078316 -3.879283 56.347012 -0.000001 -0.000001 0.000000 0.000003 0.000003 0.000001 0.000002 0.000001 0.000001 0.000004 0.000000 0.000000 0.000002 0.000001 0.000001 0.000002 0.000001 0.000001 0.000002 0.000001 0.000001 0.000004 0.000000 -0.000000 0.000002 0.000001 0.000001 0.000002 0.000001 0.000001 0.000002 0.000001 0.000001 0.000004 0.000000 -0.000000 -0.000000 0.000001 -0.000000 -0.000000 0.000001 -0.000000 -0.000000 0.000001 -0.000000 
4.107808 67.970642 -14.148744 6.870331 -6.048416 -2.602966 -0.000000 0.000000 0.000000 -43.783329 2.064916 5.463375 62.679027 1.139779 -2.154844 -2.021161 0.188187 1.641783 -0.000001 -0.000000 -0.000000 -0.000004 0.000000 -0.000000 -46.080377 -0.291430 -11.459597 35.914217 -3.868979 -1.897393 5.991128 -22.026107 15.621990 -0.000000 0.000002 0.000000 -0.000004 -0.000001 0.000001 7.472265 9.128675 4.419680 7.174303 5.562029 0.829438 7.316333 5.512429 1.200670 1.334693 12.807521 -6.025905 7.135532 36.145573 -29.798346 -0.000000 0.000000 -0.000000 -0.000000 0.000000 -0.000000 -0.000000 0.000000 -0.000001 -0.000000 0.000000 -0.000000 -0.000002 0.000000 -0.000000 -0.000000 0.000000 -0.000000 -0.000002 0.000000 -0.000000 -0.000000 0.000000 -0.000000 -0.000000 0.000000 -0.000000 0.390915 -2.305752 -13.896073 2.803664 -3.120045 -26.877863 0.000001 -57.609538 0.000001 -27.591297 -2.972349 -7.228797 -21.347830 -0.676081 -8.202892 8.636665 32.856693 2.937431 -0.000001 -0.000001 0.000001 -0.208148 -2.851252 -34.686224 3.433124 5.329657 -65.553506 -0.000000 -0.000000 -0.000004 1.312925 6.018942 -44.188425 3.894225 5.515195 -70.429905 0.000002 -0.000000 -0.000001 5.879847 9.062468 -60.165805 4.082296 5.578207 -72.375594 -0.000001 0.000001 -0.000002 5.944168 16.493104 -75.123994 4.221346 5.620273 -73.800522 -0.000000 -0.000001 0.000001 0.000002 0.000001 0.000001 2.005610 19.798963 1.191586 7.131536 -11.291149 52.650445 0.000072 83.446825 -0.000040 23.107669 -11.500525 -24.823525 -8.540120 3.719632 9.736231 7.956584 -28.087655 -3.121884 -0.000002 0.000001 -0.000004 3.907423 11.855633 48.014058 2.665466 -4.210628 64.656408 0.000001 -0.000000 0.000004 -2.304305 -2.321457 48.734810 2.068343 -3.872631 56.199404 -0.000001 -0.000003 -0.000003 0.321512 -4.403196 42.804403 2.338676 -4.040130 60.115835 0.000002 -0.000001 0.000002 -3.590266 -16.652906 47.778601 2.599633 -4.178918 63.756162 -0.000000 -0.000001 -0.000007 0.000001 -0.000001 0.000001 0.000001 0.000000 -0.000001 0.000001 0.000002 -0.000000 0.000001 0.000000 -0.000001 0.000001 0.000000 -0.000001 0.000001 0.000000 -0.000001 0.000001 0.000002 -0.000000 0.000001 0.000000 -0.000001 0.000001 0.000000 -0.000001 0.000001 0.000000 -0.000001 0.000001 0.000002 -0.000000 -0.000000 0.000000 0.000000 -0.000000 0.000000 0.000000 -0.000000 0.000000 0.000000 
